<svg width="108" height="32" viewBox="0 0 108 32" fill="none" xmlns="http://www.w3.org/2000/svg">
<path d="M16.9529 15.0186C16.9245 11.5277 19.5335 9.82933 19.6528 9.75026C18.1752 7.36413 15.885 7.03811 15.0802 7.01212C13.1567 6.78791 11.2909 8.28696 10.311 8.28696C9.31161 8.28696 7.80271 7.03378 6.17648 7.0706C4.08378 7.10635 2.12604 8.44834 1.05231 10.5323C-1.1636 14.7814 0.489041 21.0256 2.61205 24.4602C3.67404 26.1434 4.91499 28.0204 6.53927 27.9544C8.12835 27.8829 8.72194 26.8333 10.6396 26.8333C12.5396 26.8333 13.097 27.9544 14.7536 27.9121C16.459 27.8829 17.5328 26.2224 18.5576 24.5252C19.7849 22.5983 20.2777 20.6985 20.2973 20.601C20.2582 20.5859 16.9861 19.2016 16.9529 15.0186Z" fill="white"/>
<path d="M13.91 5.06505C14.7703 3.89805 15.3589 2.31038 15.1955 0.699219C13.9504 0.75901 12.3932 1.63346 11.4965 2.77483C10.7032 3.7806 9.99449 5.42913 10.1776 6.97944C11.5762 7.09261 13.0123 6.21389 13.91 5.06505Z" fill="white"/>
<path d="M40.0526 27.3533H37.8118L36.5844 23.1834H32.318L31.1488 27.3533H28.9673L33.1952 13.1572H35.8059L40.0526 27.3533ZM36.2144 21.434L35.1044 17.7271C34.987 17.3484 34.766 16.4566 34.4423 15.0528H34.4029C34.2726 15.6566 34.0644 16.5484 33.7793 17.7271L32.688 21.434H36.2144Z" fill="white"/>
<path d="M50.904 22.1093C50.904 23.8502 50.4669 25.2263 49.5917 26.2365C48.8083 27.1357 47.8344 27.5848 46.6731 27.5848C45.419 27.5848 44.5172 27.1016 43.9696 26.133V31.504H41.866V20.4814C41.866 19.388 41.8394 18.2669 41.7881 17.117H43.6381L43.7555 18.7395H43.795C44.4965 17.517 45.5611 16.9058 46.9898 16.9058C48.1067 16.9058 49.0391 17.3826 49.7851 18.3373C50.53 19.2942 50.904 20.5508 50.904 22.1093ZM48.7609 22.1925C48.7609 21.1962 48.5537 20.3748 48.1373 19.7273C47.6825 19.0542 47.0717 18.7171 46.3061 18.7171C45.7871 18.7171 45.3154 18.9048 44.8941 19.275C44.4718 19.6483 44.1956 20.1358 44.0663 20.7396C44.0012 21.0212 43.9686 21.2506 43.9686 21.4319V23.1397C43.9686 23.8833 44.1798 24.5116 44.6021 25.0257C45.0244 25.5378 45.573 25.7948 46.2478 25.7948C47.0401 25.7948 47.6568 25.4631 48.0979 24.8049C48.5399 24.1446 48.7609 23.2742 48.7609 22.1925Z" fill="white"/>
<path d="M61.7941 22.1093C61.7941 23.8502 61.357 25.2263 60.4818 26.2365C59.6974 27.1357 58.7246 27.5848 57.5623 27.5848C56.3082 27.5848 55.4064 27.1016 54.8588 26.133V31.504H52.7552V20.4814C52.7552 19.388 52.7286 18.2669 52.6772 17.117H54.5273L54.6447 18.7395H54.6841C55.3847 17.517 56.4493 16.9058 57.879 16.9058C58.9949 16.9058 59.9273 17.3826 60.6752 18.3373C61.4192 19.2942 61.7941 20.5508 61.7941 22.1093ZM59.6501 22.1925C59.6501 21.1962 59.4419 20.3748 59.0255 19.7273C58.5706 19.0542 57.9619 18.7171 57.1962 18.7171C56.6772 18.7171 56.2056 18.9048 55.7823 19.275C55.36 19.6483 55.0847 20.1358 54.9555 20.7396C54.8913 21.0212 54.8568 21.2506 54.8568 21.4319V23.1397C54.8568 23.8833 55.0689 24.5116 55.4893 25.0257C55.9116 25.5367 56.4602 25.7948 57.137 25.7948C57.9303 25.7948 58.547 25.4631 58.987 24.8049C59.4291 24.1446 59.6501 23.2742 59.6501 22.1925Z" fill="white"/>
<path d="M73.9697 23.3714C73.9697 24.58 73.579 25.5624 72.8025 26.3209C71.948 27.1487 70.7551 27.5636 69.2258 27.5636C67.8128 27.5636 66.6801 27.2692 65.8257 26.6793L66.3121 24.7837C67.2347 25.3747 68.248 25.6691 69.3511 25.6691C70.1444 25.6691 70.761 25.475 71.2011 25.0899C71.6421 24.7037 71.8651 24.1874 71.8651 23.5431C71.8651 22.966 71.6806 22.4828 71.3185 22.0892C70.9544 21.6966 70.3525 21.3307 69.507 20.9947C67.208 20.0677 66.0576 18.7119 66.0576 16.9283C66.0576 15.7634 66.4641 14.8098 67.2751 14.0641C68.0862 13.3196 69.1616 12.9473 70.4996 12.9473C71.6944 12.9473 72.69 13.1723 73.4803 13.6214L72.9524 15.4754C72.2085 15.0402 71.3688 14.8226 70.4295 14.8226C69.6875 14.8226 69.1054 15.0199 68.689 15.4125C68.3387 15.7634 68.1611 16.1912 68.1611 16.699C68.1611 17.259 68.3634 17.7241 68.766 18.0889C69.1153 18.4249 69.7526 18.7908 70.6742 19.1834C71.8049 19.6762 72.6357 20.2501 73.1675 20.9094C73.7033 21.5686 73.9697 22.391 73.9697 23.3714Z" fill="white"/>
<path d="M80.9424 18.8239H78.6237V23.7938C78.6237 25.0579 79.0322 25.6883 79.8511 25.6883C80.227 25.6883 80.5388 25.6542 80.7855 25.5827L80.8437 27.3098C80.4293 27.4772 79.8837 27.5615 79.2078 27.5615C78.377 27.5615 77.7278 27.2874 77.2591 26.7391C76.7924 26.1908 76.5576 25.2723 76.5576 23.9794V18.8196H75.1763V17.1129H76.5576V15.2386L78.6237 14.5645V17.1129H80.9424V18.8239Z" fill="white"/>
<path d="M91.3831 22.1511C91.3831 23.7245 90.9667 25.0163 90.136 26.0265C89.2667 27.0666 88.1103 27.585 86.6688 27.585C85.2776 27.585 84.1715 27.0869 83.3467 26.0916C82.5218 25.0942 82.1094 23.8376 82.1094 22.3218C82.1094 20.7355 82.5356 19.4363 83.3851 18.4261C84.2366 17.4148 85.3832 16.9092 86.8247 16.9092C88.2139 16.9092 89.3298 17.4084 90.1744 18.4047C90.9815 19.3712 91.3831 20.6193 91.3831 22.1511ZM89.2026 22.2034C89.2026 21.2657 89.0151 20.4614 88.6392 19.7883C88.1981 18.9754 87.5667 18.569 86.7487 18.569C85.9061 18.569 85.2598 18.9754 84.8198 19.7883C84.4429 20.4614 84.2554 21.2796 84.2554 22.246C84.2554 23.1848 84.4429 23.9912 84.8198 24.6622C85.2746 25.475 85.909 25.8815 86.7309 25.8815C87.5351 25.8815 88.1656 25.4665 88.6214 24.6419C89.0082 23.9528 89.2026 23.1432 89.2026 22.2034Z" fill="white"/>
<path d="M98.2238 19.1171C98.0156 19.0755 97.7926 19.0542 97.5608 19.0542C96.8208 19.0542 96.2485 19.355 95.8459 19.9609C95.4966 20.4942 95.321 21.1684 95.321 21.9823V27.3533H93.2174V20.3406C93.2174 19.1619 93.1967 18.0866 93.1562 17.118H94.9885L95.0655 19.0766H95.1237C95.3467 18.4035 95.696 17.8605 96.1755 17.4541C96.6441 17.0882 97.1503 16.9058 97.6959 16.9058C97.8903 16.9058 98.0659 16.9207 98.2218 16.9474L98.2238 19.1171Z" fill="white"/>
<path d="M107.632 21.7512C107.632 22.1587 107.607 22.5022 107.555 22.7828H101.244C101.268 23.794 101.573 24.5685 102.16 25.1018C102.691 25.5776 103.379 25.8166 104.224 25.8166C105.158 25.8166 106.011 25.6565 106.777 25.3333L107.107 26.911C106.211 27.3334 105.153 27.5436 103.933 27.5436C102.464 27.5436 101.312 27.0764 100.473 26.144C99.6366 25.2106 99.2173 23.9562 99.2173 22.3849C99.2173 20.8424 99.607 19.557 100.387 18.5318C101.204 17.4374 102.309 16.8901 103.698 16.8901C105.062 16.8901 106.095 17.4374 106.797 18.5318C107.352 19.3991 107.632 20.4744 107.632 21.7512ZM105.626 21.1613C105.641 20.4861 105.502 19.9047 105.217 19.413C104.853 18.7793 104.293 18.4636 103.542 18.4636C102.854 18.4636 102.294 18.7719 101.867 19.3906C101.517 19.8823 101.309 20.4733 101.245 21.1592L105.626 21.1613Z" fill="white"/>
<path d="M35.4764 7.79274H34.3753L33.773 5.77888H31.6784L31.1037 7.79274H30.0322L32.1082 0.935547H33.3896L35.4764 7.79274ZM33.5917 4.93392L33.0466 3.14335C32.9894 2.95989 32.8839 2.53322 32.7213 1.8518H32.7016C32.6345 2.14638 32.5389 2.5741 32.395 3.14335L31.8598 4.93392H33.5917Z" fill="white"/>
<path d="M40.667 2.84863L38.9065 7.7926H37.9021L36.1987 2.84863H37.3087L38.1031 5.46319C38.2372 5.90035 38.3515 6.31759 38.4373 6.71386H38.4659C38.5428 6.35848 38.6571 5.94124 38.8 5.46319L39.5847 2.84863H40.667Z" fill="white"/>
<path d="M44.415 7.79273L44.3381 7.22348H44.3095C43.9941 7.68161 43.5348 7.9049 42.9512 7.9049C42.1193 7.9049 41.5259 7.28429 41.5259 6.44981C41.5259 5.22954 42.5205 4.59844 44.2425 4.59844V4.50723C44.2425 3.85621 43.9172 3.53018 43.2765 3.53018C42.8172 3.53018 42.415 3.65284 42.0621 3.8971L41.8522 3.17479C42.2829 2.88964 42.8182 2.74707 43.45 2.74707C44.6644 2.74707 45.2775 3.42849 45.2775 4.79238V6.61335C45.2775 7.11236 45.2972 7.4992 45.3446 7.79378L44.415 7.79273ZM44.2711 5.33018C43.1227 5.33018 42.5491 5.62581 42.5491 6.32715C42.5491 6.84608 42.8458 7.09978 43.2568 7.09978C43.7832 7.09978 44.2711 6.6731 44.2711 6.09337V5.33018Z" fill="white"/>
<path d="M47.578 2.0342C47.2339 2.0342 46.9658 1.74905 46.9658 1.3727C46.9658 0.996345 47.2428 0.72168 47.5977 0.72168C47.9515 0.72168 48.2384 0.996345 48.2285 1.3727C48.2285 1.77002 47.9614 2.0342 47.578 2.0342ZM48.1142 7.79273H47.0811V2.84876H48.1142V7.79273Z" fill="white"/>
<path d="M50.9827 7.79266H49.9497V0.580078H50.9827V7.79266Z" fill="white"/>
<path d="M55.373 7.7928L55.2962 7.22355H55.2676C54.9521 7.68168 54.4928 7.90498 53.9092 7.90498C53.0773 7.90498 52.4839 7.28436 52.4839 6.44988C52.4839 5.22961 53.4785 4.59851 55.2005 4.59851V4.5073C55.2005 3.85629 54.8752 3.53025 54.2345 3.53025C53.7752 3.53025 53.373 3.65291 53.0201 3.89717L52.8092 3.17382C53.2399 2.88867 53.7752 2.74609 54.407 2.74609C55.6214 2.74609 56.2346 3.42751 56.2346 4.79141V6.61237C56.2346 7.11138 56.2553 7.49822 56.3006 7.7928H55.373ZM55.2291 5.33025C54.0808 5.33025 53.5071 5.62588 53.5071 6.32722C53.5071 6.84615 53.8038 7.09985 54.2148 7.09985C54.7412 7.09985 55.2291 6.67318 55.2291 6.09344V5.33025Z" fill="white"/>
<path d="M60.42 7.90483C59.7605 7.90483 59.2736 7.6092 58.9581 7.02947H58.9374L58.8783 7.79266H57.998C58.0266 7.39639 58.0365 6.9477 58.0365 6.46022V0.580078H59.0705V3.57204H59.0902C59.3968 3.02271 59.8926 2.74805 60.5727 2.74805C61.6925 2.74805 62.4772 3.76598 62.4772 5.25043C62.4772 6.7852 61.6058 7.90483 60.42 7.90483ZM60.21 3.61083C59.6156 3.61083 59.0715 4.16016 59.0715 4.92335V5.78823C59.0715 6.46965 59.5604 7.02947 60.1923 7.02947C60.9661 7.02947 61.4264 6.35853 61.4264 5.29027C61.4254 4.2933 60.9463 3.61083 60.21 3.61083Z" fill="white"/>
<path d="M65.0369 7.79266H64.0049V0.580078H65.0369V7.79266Z" fill="white"/>
<path d="M70.6606 5.58467H67.5596C67.5803 6.52084 68.1618 7.0492 69.0234 7.0492C69.4827 7.0492 69.9036 6.96743 70.2762 6.81542L70.4369 7.57861C69.9972 7.78199 69.4807 7.88368 68.8785 7.88368C67.4235 7.88368 66.563 6.90663 66.563 5.39177C66.563 3.87587 67.4442 2.73633 68.7621 2.73633C69.948 2.73633 70.6951 3.6725 70.6951 5.08671C70.6991 5.2796 70.6902 5.45258 70.6606 5.58467ZM69.7134 4.80156C69.7134 4.03837 69.3496 3.49952 68.6892 3.49952C68.0958 3.49952 67.6286 4.04885 67.5596 4.80156H69.7134Z" fill="white"/>
<path d="M76.9222 7.9049C75.5638 7.9049 74.6836 6.82616 74.6836 5.36163C74.6836 3.83525 75.5826 2.74707 77 2.74707C78.3377 2.74707 79.2386 3.77444 79.2386 5.28091C79.2386 6.82616 78.3101 7.9049 76.9222 7.9049ZM76.9616 3.5501C76.2154 3.5501 75.7373 4.29232 75.7373 5.33018C75.7373 6.34812 76.2253 7.09034 76.9517 7.09034C77.6782 7.09034 78.1652 6.29675 78.1652 5.30921C78.1662 4.30281 77.6881 3.5501 76.9616 3.5501Z" fill="white"/>
<path d="M84.7918 7.7928H83.7597V4.9539C83.7597 4.07958 83.4443 3.64138 82.8223 3.64138C82.2102 3.64138 81.7883 4.20119 81.7883 4.85221V7.7928H80.7562V4.26199C80.7562 3.82484 80.7454 3.35623 80.7178 2.84778H81.6266L81.6749 3.61097H81.7035C81.9795 3.08261 82.5453 2.74609 83.1762 2.74609C84.151 2.74609 84.7918 3.53969 84.7918 4.83124V7.7928Z" fill="white"/>
<path d="M91.5512 3.67249H90.4146V6.07319C90.4146 6.68438 90.6148 6.98944 91.0159 6.98944C91.1983 6.98944 91.3521 6.96848 91.4753 6.93807L91.5039 7.77255C91.3028 7.85432 91.0337 7.89521 90.7015 7.89521C89.8873 7.89521 89.4013 7.41717 89.4013 6.16545V3.67249H88.7231V2.8485H89.4013V1.94273L90.4146 1.6167V2.84745H91.5512V3.67249Z" fill="white"/>
<path d="M97.0219 7.79266H95.9879V4.97472C95.9879 4.08992 95.6724 3.64228 95.0504 3.64228C94.5152 3.64228 94.0184 4.02912 94.0184 4.81223V7.79266H92.9844V0.580078H94.0184V3.55003H94.0381C94.3634 3.01118 94.8326 2.74595 95.4349 2.74595C96.4196 2.74595 97.0219 3.55946 97.0219 4.85206V7.79266Z" fill="white"/>
<path d="M102.3 5.58467H99.2002C99.2199 6.52084 99.8015 7.0492 100.663 7.0492C101.123 7.0492 101.543 6.96743 101.916 6.81542L102.078 7.57861C101.638 7.78199 101.12 7.88368 100.518 7.88368C99.0632 7.88368 98.2026 6.90663 98.2026 5.39177C98.2026 3.87587 99.0839 2.73633 100.402 2.73633C101.588 2.73633 102.335 3.6725 102.335 5.08671C102.339 5.2796 102.329 5.45258 102.3 5.58467ZM101.353 4.80156C101.353 4.03837 100.99 3.49952 100.33 3.49952C99.7354 3.49952 99.2682 4.04885 99.2002 4.80156H101.353Z" fill="white"/>
</svg>
