<svg width="107" height="28" viewBox="0 0 107 28" fill="none" xmlns="http://www.w3.org/2000/svg">
<path d="M34.3315 4.32643C34.3315 5.1485 34.1023 5.8069 33.6507 6.29793C33.1316 6.88002 32.4554 7.17292 31.6269 7.17292C30.835 7.17292 30.1588 6.8751 29.6042 6.28808C29.0483 5.69245 28.771 4.96145 28.771 4.08646C28.771 3.21147 29.0483 2.48047 29.6042 1.88976C30.1588 1.29782 30.835 1 31.6269 1C32.0211 1 32.397 1.08738 32.7557 1.24982C33.1133 1.4135 33.4043 1.63501 33.6152 1.90822L33.1362 2.42755C32.7683 1.96113 32.2675 1.731 31.6269 1.731C31.0493 1.731 30.5485 1.9476 30.1233 2.38448C29.7027 2.82259 29.4918 3.38991 29.4918 4.08646C29.4918 4.783 29.7027 5.35525 30.1233 5.79336C30.5485 6.22532 31.0493 6.44684 31.6269 6.44684C32.24 6.44684 32.7557 6.22532 33.1625 5.78844C33.4307 5.49924 33.5831 5.10051 33.6232 4.59102H31.6269V3.87971H34.2902C34.3223 4.03354 34.3315 4.18245 34.3315 4.32643Z" fill="white" stroke="white" stroke-width="0.625"/>
<path d="M38.5562 1.8601H36.0544V3.73068H38.3098V4.442H36.0544V6.31258H38.5562V7.03743H35.3462V1.13525H38.5562V1.8601Z" fill="white" stroke="white" stroke-width="0.625"/>
<path d="M41.5391 7.03743H40.8309V1.8601H39.2964V1.13525H43.0748V1.8601H41.5391V7.03743Z" fill="white" stroke="white" stroke-width="0.625"/>
<path d="M45.8091 7.03743V1.13525H46.5162V7.03743H45.8091Z" fill="white" stroke="white" stroke-width="0.625"/>
<path d="M49.65 7.03743H48.9475V1.8601H47.4072V1.13525H51.1902V1.8601H49.65V7.03743Z" fill="white" stroke="white" stroke-width="0.625"/>
<path d="M58.3437 6.27824C57.8017 6.8751 57.1301 7.17292 56.329 7.17292C55.5234 7.17292 54.8518 6.8751 54.3097 6.27824C53.7688 5.6826 53.4995 4.9516 53.4995 4.08646C53.4995 3.22131 53.7688 2.49031 54.3097 1.89468C54.8518 1.29782 55.5234 1 56.329 1C57.1255 1 57.7971 1.29782 58.3391 1.8996C58.8847 2.50016 59.154 3.22624 59.154 4.08646C59.154 4.9516 58.8847 5.6826 58.3437 6.27824ZM54.8335 5.78352C55.2415 6.22532 55.7377 6.44684 56.329 6.44684C56.9158 6.44684 57.4166 6.22532 57.82 5.78352C58.2268 5.34172 58.4331 4.77439 58.4331 4.08646C58.4331 3.39853 58.2268 2.8312 57.82 2.3894C57.4166 1.9476 56.9158 1.72608 56.329 1.72608C55.7377 1.72608 55.2415 1.9476 54.8335 2.3894C54.4266 2.8312 54.2204 3.39853 54.2204 4.08646C54.2204 4.77439 54.4266 5.34172 54.8335 5.78352Z" fill="white" stroke="white" stroke-width="0.625"/>
<path d="M60.1475 7.03743V1.13525H61.007L63.6795 5.72556H63.7104L63.6795 4.59091V1.13525H64.3866V7.03743H63.6485L60.85 2.22068H60.819L60.85 3.36026V7.03743H60.1475Z" fill="white" stroke="white" stroke-width="0.625"/>
<path d="M53.3255 15.6569C51.1721 15.6569 49.413 17.4167 49.413 19.8447C49.413 22.2531 51.1721 24.0314 53.3255 24.0314C55.4834 24.0314 57.2426 22.2531 57.2426 19.8447C57.2426 17.4167 55.4834 15.6569 53.3255 15.6569ZM53.3255 22.3823C52.1439 22.3823 51.1274 21.3351 51.1274 19.8447C51.1274 18.3347 52.1439 17.3059 53.3255 17.3059C54.507 17.3059 55.5281 18.3347 55.5281 19.8447C55.5281 21.3351 54.507 22.3823 53.3255 22.3823ZM44.7888 15.6569C42.6308 15.6569 40.8763 17.4167 40.8763 19.8447C40.8763 22.2531 42.6308 24.0314 44.7888 24.0314C46.9456 24.0314 48.7013 22.2531 48.7013 19.8447C48.7013 17.4167 46.9456 15.6569 44.7888 15.6569ZM44.7888 22.3823C43.6061 22.3823 42.5861 21.3351 42.5861 19.8447C42.5861 18.3347 43.6061 17.3059 44.7888 17.3059C45.9703 17.3059 46.9868 18.3347 46.9868 19.8447C46.9868 21.3351 45.9703 22.3823 44.7888 22.3823ZM34.6305 16.9404V18.7199H38.5877C38.4719 19.7143 38.1625 20.4453 37.688 20.9548C37.1105 21.5701 36.2108 22.2531 34.6305 22.2531C32.1952 22.2531 30.2882 20.1426 30.2882 17.5274C30.2882 14.9123 32.1952 12.8018 34.6305 12.8018C35.9472 12.8018 36.9053 13.3543 37.6124 14.0706L38.7802 12.8165C37.7912 11.8025 36.4756 11.0235 34.6305 11.0235C31.291 11.0235 28.4844 13.9413 28.4844 17.5274C28.4844 21.1135 31.291 24.0314 34.6305 24.0314C36.4354 24.0314 37.7912 23.3964 38.857 22.2051C39.9491 21.0323 40.2895 19.3832 40.2895 18.0517C40.2895 17.6382 40.2574 17.2579 40.2001 16.9404H34.6305ZM76.1691 18.32C75.847 17.3835 74.8534 15.6569 72.8296 15.6569C70.824 15.6569 69.1543 17.3539 69.1543 19.8447C69.1543 22.1903 70.8068 24.0314 73.0221 24.0314C74.8133 24.0314 75.847 22.8586 76.2722 22.1756L74.9428 21.2243C74.4993 21.9208 73.8954 22.3823 73.0221 22.3823C72.1546 22.3823 71.5323 21.9553 71.1334 21.1135L76.349 18.7962L76.1691 18.32ZM70.8515 19.7143C70.8068 18.0997 72.0193 17.2727 72.888 17.2727C73.5687 17.2727 74.1463 17.6382 74.3389 18.1612L70.8515 19.7143ZM66.6124 23.7767H68.3269V11.4702L66.6124 11.4702V23.7767ZM63.8047 16.5897H63.7474C63.3623 16.0999 62.6277 15.6569 61.6971 15.6569C59.7443 15.6569 57.9588 17.4979 57.9588 19.8583C57.9588 22.2051 59.7443 24.0314 61.6971 24.0314C62.6277 24.0314 63.3623 23.5847 63.7474 23.0801H63.8047V23.6807C63.8047 25.2817 63.0082 26.142 61.7235 26.142C60.676 26.142 60.0262 25.3297 59.7581 24.6467L58.2671 25.315C58.6969 26.425 59.8349 27.791 61.7235 27.791C63.7336 27.791 65.4297 26.521 65.4297 23.4308V15.9116H63.8047V16.5897ZM61.8438 22.3823C60.6623 22.3823 59.6733 21.3203 59.6733 19.8583C59.6733 18.3827 60.6623 17.3059 61.8438 17.3059C63.0082 17.3059 63.9261 18.3827 63.9261 19.8583C63.9261 21.3203 63.0082 22.3823 61.8438 22.3823ZM84.1958 11.4702H80.0953V23.7767H81.8052V19.1137H84.1958C86.0947 19.1137 87.957 17.6382 87.957 15.2914C87.957 12.9457 86.0901 11.4702 84.1958 11.4702ZM84.2405 17.4019H81.8052V13.182H84.2405C85.5171 13.182 86.246 14.3204 86.246 15.2914C86.246 16.2439 85.5171 17.4019 84.2405 17.4019ZM94.8102 15.6335C93.5748 15.6335 92.2901 16.2193 91.7618 17.5176L93.2791 18.2006C93.6057 17.5176 94.2062 17.2961 94.8411 17.2961C95.7282 17.2961 96.6278 17.8683 96.6415 18.8787V19.0079C96.3321 18.8159 95.6697 18.5316 94.8549 18.5316C93.2207 18.5316 91.5555 19.4977 91.5555 21.3006C91.5555 22.9497 92.8941 24.0117 94.3988 24.0117C95.5494 24.0117 96.1843 23.4542 96.5831 22.8057H96.6415V23.757L98.2929 23.757V19.0362C98.2929 16.8543 96.7756 15.6335 94.8102 15.6335ZM94.6039 22.3774C94.0447 22.3774 93.2654 22.0796 93.2654 21.3351C93.2654 20.3825 94.2372 20.017 95.0784 20.017C95.8313 20.017 96.1843 20.1955 96.6415 20.4305C96.5074 21.5701 95.5941 22.3774 94.6039 22.3774ZM104.31 15.903L102.344 21.2378H102.286L100.254 15.903H98.4098L101.463 23.3582L99.7209 27.5067H101.508L106.212 15.903H104.31ZM88.8967 23.7767H90.6112V11.4702H88.8967V23.7767Z" fill="white"/>
<path d="M0.425173 1.66302C0.155859 1.96576 0 2.43709 0 3.04749L0 24.8201C0 25.4305 0.155859 25.9018 0.425173 26.2045L0.491642 26.271L11.8533 14.0753V13.7873L0.491642 1.59164L0.425173 1.66302Z" fill="url(#paint0_linear)"/>
<path d="M15.6365 18.1426L11.8535 14.0753V13.7873L15.6411 9.72004L15.7259 9.77296L20.2114 12.5136C21.4915 13.2914 21.4915 14.5712 20.2114 15.3539L15.7259 18.0897L15.6365 18.1426Z" fill="url(#paint1_linear)"/>
<path d="M15.7263 18.0897L11.8539 13.9313L0.425781 26.2045C0.850954 26.6845 1.5443 26.7423 2.33276 26.2624L15.7263 18.0897Z" fill="url(#paint2_linear)"/>
<path d="M15.7263 9.77329L2.33276 1.60058C1.5443 1.12555 0.850954 1.18339 0.425781 1.66334L11.8539 13.9316L15.7263 9.77329Z" fill="url(#paint3_linear)"/>
<defs>
<linearGradient id="paint0_linear" x1="7.32719" y1="25.0468" x2="-3.34892" y2="15.7606" gradientUnits="userSpaceOnUse">
<stop stop-color="#00A0FF"/>
<stop offset="0.0066" stop-color="#00A1FF"/>
<stop offset="0.2601" stop-color="#00BEFF"/>
<stop offset="0.5122" stop-color="#00D2FF"/>
<stop offset="0.7604" stop-color="#00DFFF"/>
<stop offset="1" stop-color="#00E3FF"/>
</linearGradient>
<linearGradient id="paint1_linear" x1="21.8783" y1="13.9299" x2="-0.30574" y2="13.9299" gradientUnits="userSpaceOnUse">
<stop stop-color="#FFE000"/>
<stop offset="0.4087" stop-color="#FFBD00"/>
<stop offset="0.7754" stop-color="#FFA500"/>
<stop offset="1" stop-color="#FF9C00"/>
</linearGradient>
<linearGradient id="paint2_linear" x1="13.6206" y1="15.4956" x2="-4.41371" y2="-0.190867" gradientUnits="userSpaceOnUse">
<stop stop-color="#FF3A44"/>
<stop offset="1" stop-color="#C31162"/>
</linearGradient>
<linearGradient id="paint3_linear" x1="-2.45091" y1="21.9335" x2="5.60041" y2="14.9304" gradientUnits="userSpaceOnUse">
<stop stop-color="#32A071"/>
<stop offset="0.0685" stop-color="#2DA771"/>
<stop offset="0.4762" stop-color="#15CF74"/>
<stop offset="0.8009" stop-color="#06E775"/>
<stop offset="1" stop-color="#00F076"/>
</linearGradient>
</defs>
</svg>
